<mxfile host="app.diagrams.net" modified="2024-04-10T12:56:52.063Z" agent="Mozilla/5.0 (Windows NT 10.0; Win64; x64) AppleWebKit/537.36 (KHTML, like Gecko) Chrome/123.0.0.0 Safari/537.36 Edg/123.0.0.0" etag="Lh_dRDGNuyaAmrh0a_ZY" version="24.2.3" type="github">
  <diagram name="第 1 页" id="TztystWgPXiCostqaa8W">
    <mxGraphModel dx="779" dy="448" grid="1" gridSize="10" guides="1" tooltips="1" connect="1" arrows="1" fold="1" page="1" pageScale="1" pageWidth="827" pageHeight="1169" math="0" shadow="0">
      <root>
        <mxCell id="0" />
        <mxCell id="1" parent="0" />
        <mxCell id="P4-kjMKep5JRL_cxLgxr-1" value="" style="rounded=1;whiteSpace=wrap;html=1;fillColor=none;strokeColor=#0e8088;" vertex="1" parent="1">
          <mxGeometry x="320" y="590" width="160" height="60" as="geometry" />
        </mxCell>
        <mxCell id="P4-kjMKep5JRL_cxLgxr-2" value="" style="ellipse;whiteSpace=wrap;html=1;aspect=fixed;fillColor=#b0e3e6;strokeColor=#0e8088;" vertex="1" parent="1">
          <mxGeometry x="360" y="610" width="10" height="10" as="geometry" />
        </mxCell>
        <mxCell id="P4-kjMKep5JRL_cxLgxr-3" value="" style="ellipse;whiteSpace=wrap;html=1;aspect=fixed;fillColor=#b0e3e6;strokeColor=#0e8088;" vertex="1" parent="1">
          <mxGeometry x="330" y="630" width="10" height="10" as="geometry" />
        </mxCell>
        <mxCell id="P4-kjMKep5JRL_cxLgxr-4" value="" style="ellipse;whiteSpace=wrap;html=1;aspect=fixed;fillColor=#b0e3e6;strokeColor=#0e8088;" vertex="1" parent="1">
          <mxGeometry x="370" y="630" width="10" height="10" as="geometry" />
        </mxCell>
        <mxCell id="P4-kjMKep5JRL_cxLgxr-5" value="" style="ellipse;whiteSpace=wrap;html=1;aspect=fixed;fillColor=#b0e3e6;strokeColor=#0e8088;" vertex="1" parent="1">
          <mxGeometry x="400" y="600" width="10" height="10" as="geometry" />
        </mxCell>
        <mxCell id="P4-kjMKep5JRL_cxLgxr-6" value="" style="ellipse;whiteSpace=wrap;html=1;aspect=fixed;fillColor=#b0e3e6;strokeColor=#0e8088;" vertex="1" parent="1">
          <mxGeometry x="390" y="620" width="10" height="10" as="geometry" />
        </mxCell>
        <mxCell id="P4-kjMKep5JRL_cxLgxr-7" value="" style="ellipse;whiteSpace=wrap;html=1;aspect=fixed;fillColor=#b0e3e6;strokeColor=#0e8088;" vertex="1" parent="1">
          <mxGeometry x="420" y="620" width="10" height="10" as="geometry" />
        </mxCell>
        <mxCell id="P4-kjMKep5JRL_cxLgxr-8" value="" style="ellipse;whiteSpace=wrap;html=1;aspect=fixed;fillColor=#b0e3e6;strokeColor=#0e8088;" vertex="1" parent="1">
          <mxGeometry x="400" y="630" width="10" height="10" as="geometry" />
        </mxCell>
        <mxCell id="P4-kjMKep5JRL_cxLgxr-9" value="" style="ellipse;whiteSpace=wrap;html=1;aspect=fixed;fillColor=#b0e3e6;strokeColor=#0e8088;" vertex="1" parent="1">
          <mxGeometry x="450" y="610" width="10" height="10" as="geometry" />
        </mxCell>
        <mxCell id="P4-kjMKep5JRL_cxLgxr-10" value="" style="ellipse;whiteSpace=wrap;html=1;aspect=fixed;fillColor=#b0e3e6;strokeColor=#0e8088;" vertex="1" parent="1">
          <mxGeometry x="440" y="630" width="10" height="10" as="geometry" />
        </mxCell>
        <mxCell id="P4-kjMKep5JRL_cxLgxr-11" value="" style="endArrow=none;html=1;rounded=0;entryX=0;entryY=0.5;entryDx=0;entryDy=0;exitX=0.989;exitY=0.287;exitDx=0;exitDy=0;exitPerimeter=0;" edge="1" parent="1" source="P4-kjMKep5JRL_cxLgxr-2" target="P4-kjMKep5JRL_cxLgxr-5">
          <mxGeometry width="50" height="50" relative="1" as="geometry">
            <mxPoint x="290" y="600" as="sourcePoint" />
            <mxPoint x="340" y="550" as="targetPoint" />
          </mxGeometry>
        </mxCell>
        <mxCell id="P4-kjMKep5JRL_cxLgxr-12" value="" style="endArrow=none;html=1;rounded=0;entryX=0.054;entryY=0.77;entryDx=0;entryDy=0;exitX=1;exitY=0;exitDx=0;exitDy=0;entryPerimeter=0;" edge="1" parent="1" source="P4-kjMKep5JRL_cxLgxr-3" target="P4-kjMKep5JRL_cxLgxr-2">
          <mxGeometry width="50" height="50" relative="1" as="geometry">
            <mxPoint x="331" y="624.5" as="sourcePoint" />
            <mxPoint x="360" y="615.5" as="targetPoint" />
          </mxGeometry>
        </mxCell>
        <mxCell id="P4-kjMKep5JRL_cxLgxr-13" value="" style="endArrow=none;html=1;rounded=0;entryX=0.045;entryY=0.418;entryDx=0;entryDy=0;exitX=1.032;exitY=0.656;exitDx=0;exitDy=0;exitPerimeter=0;entryPerimeter=0;" edge="1" parent="1" source="P4-kjMKep5JRL_cxLgxr-2" target="P4-kjMKep5JRL_cxLgxr-6">
          <mxGeometry width="50" height="50" relative="1" as="geometry">
            <mxPoint x="349" y="641" as="sourcePoint" />
            <mxPoint x="371" y="628" as="targetPoint" />
          </mxGeometry>
        </mxCell>
        <mxCell id="P4-kjMKep5JRL_cxLgxr-14" value="" style="endArrow=none;html=1;rounded=0;entryX=0.06;entryY=0.282;entryDx=0;entryDy=0;exitX=0.74;exitY=0.928;exitDx=0;exitDy=0;exitPerimeter=0;entryPerimeter=0;" edge="1" parent="1" source="P4-kjMKep5JRL_cxLgxr-5" target="P4-kjMKep5JRL_cxLgxr-7">
          <mxGeometry width="50" height="50" relative="1" as="geometry">
            <mxPoint x="410" y="610" as="sourcePoint" />
            <mxPoint x="430" y="617" as="targetPoint" />
          </mxGeometry>
        </mxCell>
        <mxCell id="P4-kjMKep5JRL_cxLgxr-15" value="" style="endArrow=none;html=1;rounded=0;entryX=0.271;entryY=0.067;entryDx=0;entryDy=0;exitX=0.679;exitY=0.998;exitDx=0;exitDy=0;exitPerimeter=0;entryPerimeter=0;" edge="1" parent="1" source="P4-kjMKep5JRL_cxLgxr-2" target="P4-kjMKep5JRL_cxLgxr-4">
          <mxGeometry width="50" height="50" relative="1" as="geometry">
            <mxPoint x="346" y="620" as="sourcePoint" />
            <mxPoint x="360" y="634" as="targetPoint" />
          </mxGeometry>
        </mxCell>
        <mxCell id="P4-kjMKep5JRL_cxLgxr-16" value="" style="endArrow=none;html=1;rounded=0;entryX=0;entryY=0.5;entryDx=0;entryDy=0;exitX=1;exitY=0.5;exitDx=0;exitDy=0;" edge="1" parent="1" source="P4-kjMKep5JRL_cxLgxr-4" target="P4-kjMKep5JRL_cxLgxr-8">
          <mxGeometry width="50" height="50" relative="1" as="geometry">
            <mxPoint x="380" y="640" as="sourcePoint" />
            <mxPoint x="410" y="632" as="targetPoint" />
          </mxGeometry>
        </mxCell>
        <mxCell id="P4-kjMKep5JRL_cxLgxr-17" value="" style="endArrow=none;html=1;rounded=0;entryX=0.01;entryY=0.661;entryDx=0;entryDy=0;exitX=0.985;exitY=0.26;exitDx=0;exitDy=0;entryPerimeter=0;exitPerimeter=0;" edge="1" parent="1" source="P4-kjMKep5JRL_cxLgxr-8" target="P4-kjMKep5JRL_cxLgxr-7">
          <mxGeometry width="50" height="50" relative="1" as="geometry">
            <mxPoint x="390" y="645" as="sourcePoint" />
            <mxPoint x="410" y="645" as="targetPoint" />
          </mxGeometry>
        </mxCell>
        <mxCell id="P4-kjMKep5JRL_cxLgxr-18" value="" style="endArrow=none;html=1;rounded=0;entryX=-0.039;entryY=0.622;entryDx=0;entryDy=0;exitX=1.005;exitY=0.357;exitDx=0;exitDy=0;exitPerimeter=0;entryPerimeter=0;" edge="1" parent="1" source="P4-kjMKep5JRL_cxLgxr-7" target="P4-kjMKep5JRL_cxLgxr-9">
          <mxGeometry width="50" height="50" relative="1" as="geometry">
            <mxPoint x="417" y="619" as="sourcePoint" />
            <mxPoint x="431" y="633" as="targetPoint" />
          </mxGeometry>
        </mxCell>
        <mxCell id="P4-kjMKep5JRL_cxLgxr-19" value="" style="endArrow=none;html=1;rounded=0;entryX=-0.027;entryY=0.325;entryDx=0;entryDy=0;exitX=0.913;exitY=0.776;exitDx=0;exitDy=0;exitPerimeter=0;entryPerimeter=0;" edge="1" parent="1" source="P4-kjMKep5JRL_cxLgxr-7" target="P4-kjMKep5JRL_cxLgxr-10">
          <mxGeometry width="50" height="50" relative="1" as="geometry">
            <mxPoint x="440" y="634" as="sourcePoint" />
            <mxPoint x="460" y="626" as="targetPoint" />
          </mxGeometry>
        </mxCell>
        <mxCell id="P4-kjMKep5JRL_cxLgxr-20" value="&lt;font style=&quot;font-size: 16px;&quot; face=&quot;Times New Roman&quot;&gt;Input&lt;/font&gt;" style="text;html=1;align=center;verticalAlign=middle;resizable=0;points=[];autosize=1;strokeColor=none;fillColor=none;" vertex="1" parent="1">
          <mxGeometry x="370" y="555" width="60" height="30" as="geometry" />
        </mxCell>
        <mxCell id="P4-kjMKep5JRL_cxLgxr-21" value="" style="endArrow=classic;html=1;rounded=0;strokeWidth=2;" edge="1" parent="1">
          <mxGeometry width="50" height="50" relative="1" as="geometry">
            <mxPoint x="400" y="650" as="sourcePoint" />
            <mxPoint x="400" y="690" as="targetPoint" />
          </mxGeometry>
        </mxCell>
        <mxCell id="P4-kjMKep5JRL_cxLgxr-22" value="" style="rounded=1;whiteSpace=wrap;html=1;fillColor=none;strokeColor=#0e8088;" vertex="1" parent="1">
          <mxGeometry x="320" y="690" width="160" height="230" as="geometry" />
        </mxCell>
        <mxCell id="P4-kjMKep5JRL_cxLgxr-23" value="" style="ellipse;whiteSpace=wrap;html=1;aspect=fixed;fillColor=#f8cecc;strokeColor=#b85450;" vertex="1" parent="1">
          <mxGeometry x="365" y="710" width="10" height="10" as="geometry" />
        </mxCell>
        <mxCell id="P4-kjMKep5JRL_cxLgxr-24" value="" style="ellipse;whiteSpace=wrap;html=1;aspect=fixed;fillColor=#b0e3e6;strokeColor=#0e8088;" vertex="1" parent="1">
          <mxGeometry x="335" y="730" width="10" height="10" as="geometry" />
        </mxCell>
        <mxCell id="P4-kjMKep5JRL_cxLgxr-25" value="" style="ellipse;whiteSpace=wrap;html=1;aspect=fixed;fillColor=#b0e3e6;strokeColor=#0e8088;" vertex="1" parent="1">
          <mxGeometry x="375" y="730" width="10" height="10" as="geometry" />
        </mxCell>
        <mxCell id="P4-kjMKep5JRL_cxLgxr-26" value="" style="ellipse;whiteSpace=wrap;html=1;aspect=fixed;fillColor=#b0e3e6;strokeColor=#0e8088;" vertex="1" parent="1">
          <mxGeometry x="405" y="700" width="10" height="10" as="geometry" />
        </mxCell>
        <mxCell id="P4-kjMKep5JRL_cxLgxr-27" value="" style="ellipse;whiteSpace=wrap;html=1;aspect=fixed;fillColor=#b0e3e6;strokeColor=#0e8088;" vertex="1" parent="1">
          <mxGeometry x="395" y="720" width="10" height="10" as="geometry" />
        </mxCell>
        <mxCell id="P4-kjMKep5JRL_cxLgxr-28" value="" style="ellipse;whiteSpace=wrap;html=1;aspect=fixed;fillColor=#b0e3e6;strokeColor=#0e8088;" vertex="1" parent="1">
          <mxGeometry x="425" y="720" width="10" height="10" as="geometry" />
        </mxCell>
        <mxCell id="P4-kjMKep5JRL_cxLgxr-29" value="" style="ellipse;whiteSpace=wrap;html=1;aspect=fixed;fillColor=#b0e3e6;strokeColor=#0e8088;" vertex="1" parent="1">
          <mxGeometry x="405" y="730" width="10" height="10" as="geometry" />
        </mxCell>
        <mxCell id="P4-kjMKep5JRL_cxLgxr-30" value="" style="ellipse;whiteSpace=wrap;html=1;aspect=fixed;fillColor=#b0e3e6;strokeColor=#0e8088;" vertex="1" parent="1">
          <mxGeometry x="455" y="710" width="10" height="10" as="geometry" />
        </mxCell>
        <mxCell id="P4-kjMKep5JRL_cxLgxr-31" value="" style="ellipse;whiteSpace=wrap;html=1;aspect=fixed;fillColor=#b0e3e6;strokeColor=#0e8088;" vertex="1" parent="1">
          <mxGeometry x="445" y="730" width="10" height="10" as="geometry" />
        </mxCell>
        <mxCell id="P4-kjMKep5JRL_cxLgxr-32" value="" style="endArrow=none;html=1;rounded=0;entryX=0;entryY=0.5;entryDx=0;entryDy=0;exitX=0.989;exitY=0.287;exitDx=0;exitDy=0;exitPerimeter=0;" edge="1" parent="1" source="P4-kjMKep5JRL_cxLgxr-23" target="P4-kjMKep5JRL_cxLgxr-26">
          <mxGeometry width="50" height="50" relative="1" as="geometry">
            <mxPoint x="295" y="700" as="sourcePoint" />
            <mxPoint x="345" y="650" as="targetPoint" />
          </mxGeometry>
        </mxCell>
        <mxCell id="P4-kjMKep5JRL_cxLgxr-33" value="" style="endArrow=none;html=1;rounded=0;entryX=0.054;entryY=0.77;entryDx=0;entryDy=0;exitX=1;exitY=0;exitDx=0;exitDy=0;entryPerimeter=0;" edge="1" parent="1" source="P4-kjMKep5JRL_cxLgxr-24" target="P4-kjMKep5JRL_cxLgxr-23">
          <mxGeometry width="50" height="50" relative="1" as="geometry">
            <mxPoint x="336" y="724.5" as="sourcePoint" />
            <mxPoint x="365" y="715.5" as="targetPoint" />
          </mxGeometry>
        </mxCell>
        <mxCell id="P4-kjMKep5JRL_cxLgxr-34" value="" style="endArrow=none;html=1;rounded=0;entryX=0.045;entryY=0.418;entryDx=0;entryDy=0;exitX=1.032;exitY=0.656;exitDx=0;exitDy=0;exitPerimeter=0;entryPerimeter=0;" edge="1" parent="1" source="P4-kjMKep5JRL_cxLgxr-23" target="P4-kjMKep5JRL_cxLgxr-27">
          <mxGeometry width="50" height="50" relative="1" as="geometry">
            <mxPoint x="354" y="741" as="sourcePoint" />
            <mxPoint x="376" y="728" as="targetPoint" />
          </mxGeometry>
        </mxCell>
        <mxCell id="P4-kjMKep5JRL_cxLgxr-35" value="" style="endArrow=none;html=1;rounded=0;entryX=0.06;entryY=0.282;entryDx=0;entryDy=0;exitX=0.74;exitY=0.928;exitDx=0;exitDy=0;exitPerimeter=0;entryPerimeter=0;strokeColor=#CCCCCC;" edge="1" parent="1" source="P4-kjMKep5JRL_cxLgxr-26" target="P4-kjMKep5JRL_cxLgxr-28">
          <mxGeometry width="50" height="50" relative="1" as="geometry">
            <mxPoint x="415" y="710" as="sourcePoint" />
            <mxPoint x="435" y="717" as="targetPoint" />
          </mxGeometry>
        </mxCell>
        <mxCell id="P4-kjMKep5JRL_cxLgxr-36" value="" style="endArrow=none;html=1;rounded=0;entryX=0.271;entryY=0.067;entryDx=0;entryDy=0;exitX=0.679;exitY=0.998;exitDx=0;exitDy=0;exitPerimeter=0;entryPerimeter=0;" edge="1" parent="1" source="P4-kjMKep5JRL_cxLgxr-23" target="P4-kjMKep5JRL_cxLgxr-25">
          <mxGeometry width="50" height="50" relative="1" as="geometry">
            <mxPoint x="351" y="720" as="sourcePoint" />
            <mxPoint x="365" y="734" as="targetPoint" />
          </mxGeometry>
        </mxCell>
        <mxCell id="P4-kjMKep5JRL_cxLgxr-37" value="" style="endArrow=none;html=1;rounded=0;entryX=0;entryY=0.5;entryDx=0;entryDy=0;exitX=1;exitY=0.5;exitDx=0;exitDy=0;strokeColor=#CCCCCC;" edge="1" parent="1" source="P4-kjMKep5JRL_cxLgxr-25" target="P4-kjMKep5JRL_cxLgxr-29">
          <mxGeometry width="50" height="50" relative="1" as="geometry">
            <mxPoint x="385" y="740" as="sourcePoint" />
            <mxPoint x="415" y="732" as="targetPoint" />
          </mxGeometry>
        </mxCell>
        <mxCell id="P4-kjMKep5JRL_cxLgxr-38" value="" style="endArrow=none;html=1;rounded=0;entryX=0.01;entryY=0.661;entryDx=0;entryDy=0;exitX=0.985;exitY=0.26;exitDx=0;exitDy=0;entryPerimeter=0;exitPerimeter=0;strokeColor=#CCCCCC;" edge="1" parent="1" source="P4-kjMKep5JRL_cxLgxr-29" target="P4-kjMKep5JRL_cxLgxr-28">
          <mxGeometry width="50" height="50" relative="1" as="geometry">
            <mxPoint x="395" y="745" as="sourcePoint" />
            <mxPoint x="415" y="745" as="targetPoint" />
          </mxGeometry>
        </mxCell>
        <mxCell id="P4-kjMKep5JRL_cxLgxr-39" value="" style="endArrow=none;html=1;rounded=0;entryX=-0.039;entryY=0.622;entryDx=0;entryDy=0;exitX=1.005;exitY=0.357;exitDx=0;exitDy=0;exitPerimeter=0;entryPerimeter=0;strokeColor=#CCCCCC;" edge="1" parent="1" source="P4-kjMKep5JRL_cxLgxr-28" target="P4-kjMKep5JRL_cxLgxr-30">
          <mxGeometry width="50" height="50" relative="1" as="geometry">
            <mxPoint x="422" y="719" as="sourcePoint" />
            <mxPoint x="436" y="733" as="targetPoint" />
          </mxGeometry>
        </mxCell>
        <mxCell id="P4-kjMKep5JRL_cxLgxr-40" value="" style="endArrow=none;html=1;rounded=0;entryX=-0.027;entryY=0.325;entryDx=0;entryDy=0;exitX=0.913;exitY=0.776;exitDx=0;exitDy=0;exitPerimeter=0;entryPerimeter=0;strokeColor=#CCCCCC;" edge="1" parent="1" source="P4-kjMKep5JRL_cxLgxr-28" target="P4-kjMKep5JRL_cxLgxr-31">
          <mxGeometry width="50" height="50" relative="1" as="geometry">
            <mxPoint x="445" y="734" as="sourcePoint" />
            <mxPoint x="465" y="726" as="targetPoint" />
          </mxGeometry>
        </mxCell>
        <mxCell id="P4-kjMKep5JRL_cxLgxr-41" value="" style="ellipse;whiteSpace=wrap;html=1;aspect=fixed;fillColor=#b0e3e6;strokeColor=#0e8088;" vertex="1" parent="1">
          <mxGeometry x="365" y="770" width="10" height="10" as="geometry" />
        </mxCell>
        <mxCell id="P4-kjMKep5JRL_cxLgxr-42" value="" style="ellipse;whiteSpace=wrap;html=1;aspect=fixed;fillColor=#b0e3e6;strokeColor=#0e8088;" vertex="1" parent="1">
          <mxGeometry x="335" y="790" width="10" height="10" as="geometry" />
        </mxCell>
        <mxCell id="P4-kjMKep5JRL_cxLgxr-43" value="" style="ellipse;whiteSpace=wrap;html=1;aspect=fixed;fillColor=#b0e3e6;strokeColor=#0e8088;" vertex="1" parent="1">
          <mxGeometry x="375" y="790" width="10" height="10" as="geometry" />
        </mxCell>
        <mxCell id="P4-kjMKep5JRL_cxLgxr-44" value="" style="ellipse;whiteSpace=wrap;html=1;aspect=fixed;fillColor=#b0e3e6;strokeColor=#0e8088;" vertex="1" parent="1">
          <mxGeometry x="405" y="760" width="10" height="10" as="geometry" />
        </mxCell>
        <mxCell id="P4-kjMKep5JRL_cxLgxr-45" value="" style="ellipse;whiteSpace=wrap;html=1;aspect=fixed;fillColor=#b0e3e6;strokeColor=#0e8088;" vertex="1" parent="1">
          <mxGeometry x="395" y="780" width="10" height="10" as="geometry" />
        </mxCell>
        <mxCell id="P4-kjMKep5JRL_cxLgxr-46" value="" style="ellipse;whiteSpace=wrap;html=1;aspect=fixed;fillColor=#f8cecc;strokeColor=#b85450;" vertex="1" parent="1">
          <mxGeometry x="425" y="780" width="10" height="10" as="geometry" />
        </mxCell>
        <mxCell id="P4-kjMKep5JRL_cxLgxr-47" value="" style="ellipse;whiteSpace=wrap;html=1;aspect=fixed;fillColor=#b0e3e6;strokeColor=#0e8088;" vertex="1" parent="1">
          <mxGeometry x="405" y="790" width="10" height="10" as="geometry" />
        </mxCell>
        <mxCell id="P4-kjMKep5JRL_cxLgxr-48" value="" style="ellipse;whiteSpace=wrap;html=1;aspect=fixed;fillColor=#b0e3e6;strokeColor=#0e8088;" vertex="1" parent="1">
          <mxGeometry x="455" y="770" width="10" height="10" as="geometry" />
        </mxCell>
        <mxCell id="P4-kjMKep5JRL_cxLgxr-49" value="" style="ellipse;whiteSpace=wrap;html=1;aspect=fixed;fillColor=#b0e3e6;strokeColor=#0e8088;" vertex="1" parent="1">
          <mxGeometry x="445" y="790" width="10" height="10" as="geometry" />
        </mxCell>
        <mxCell id="P4-kjMKep5JRL_cxLgxr-50" value="" style="endArrow=none;html=1;rounded=0;entryX=0;entryY=0.5;entryDx=0;entryDy=0;exitX=0.989;exitY=0.287;exitDx=0;exitDy=0;exitPerimeter=0;strokeColor=#CCCCCC;" edge="1" parent="1" source="P4-kjMKep5JRL_cxLgxr-41" target="P4-kjMKep5JRL_cxLgxr-44">
          <mxGeometry width="50" height="50" relative="1" as="geometry">
            <mxPoint x="295" y="760" as="sourcePoint" />
            <mxPoint x="345" y="710" as="targetPoint" />
          </mxGeometry>
        </mxCell>
        <mxCell id="P4-kjMKep5JRL_cxLgxr-51" value="" style="endArrow=none;html=1;rounded=0;entryX=0.054;entryY=0.77;entryDx=0;entryDy=0;exitX=1;exitY=0;exitDx=0;exitDy=0;entryPerimeter=0;strokeColor=#CCCCCC;" edge="1" parent="1" source="P4-kjMKep5JRL_cxLgxr-42" target="P4-kjMKep5JRL_cxLgxr-41">
          <mxGeometry width="50" height="50" relative="1" as="geometry">
            <mxPoint x="336" y="784.5" as="sourcePoint" />
            <mxPoint x="365" y="775.5" as="targetPoint" />
          </mxGeometry>
        </mxCell>
        <mxCell id="P4-kjMKep5JRL_cxLgxr-52" value="" style="endArrow=none;html=1;rounded=0;entryX=0.045;entryY=0.418;entryDx=0;entryDy=0;exitX=1.032;exitY=0.656;exitDx=0;exitDy=0;exitPerimeter=0;entryPerimeter=0;strokeColor=#CCCCCC;" edge="1" parent="1" source="P4-kjMKep5JRL_cxLgxr-41" target="P4-kjMKep5JRL_cxLgxr-45">
          <mxGeometry width="50" height="50" relative="1" as="geometry">
            <mxPoint x="354" y="801" as="sourcePoint" />
            <mxPoint x="376" y="788" as="targetPoint" />
          </mxGeometry>
        </mxCell>
        <mxCell id="P4-kjMKep5JRL_cxLgxr-53" value="" style="endArrow=none;html=1;rounded=0;entryX=0.06;entryY=0.282;entryDx=0;entryDy=0;exitX=0.74;exitY=0.928;exitDx=0;exitDy=0;exitPerimeter=0;entryPerimeter=0;" edge="1" parent="1" source="P4-kjMKep5JRL_cxLgxr-44" target="P4-kjMKep5JRL_cxLgxr-46">
          <mxGeometry width="50" height="50" relative="1" as="geometry">
            <mxPoint x="415" y="770" as="sourcePoint" />
            <mxPoint x="435" y="777" as="targetPoint" />
          </mxGeometry>
        </mxCell>
        <mxCell id="P4-kjMKep5JRL_cxLgxr-54" value="" style="endArrow=none;html=1;rounded=0;entryX=0.271;entryY=0.067;entryDx=0;entryDy=0;exitX=0.679;exitY=0.998;exitDx=0;exitDy=0;exitPerimeter=0;entryPerimeter=0;strokeColor=#CCCCCC;" edge="1" parent="1" source="P4-kjMKep5JRL_cxLgxr-41" target="P4-kjMKep5JRL_cxLgxr-43">
          <mxGeometry width="50" height="50" relative="1" as="geometry">
            <mxPoint x="351" y="780" as="sourcePoint" />
            <mxPoint x="365" y="794" as="targetPoint" />
          </mxGeometry>
        </mxCell>
        <mxCell id="P4-kjMKep5JRL_cxLgxr-55" value="" style="endArrow=none;html=1;rounded=0;entryX=0;entryY=0.5;entryDx=0;entryDy=0;exitX=1;exitY=0.5;exitDx=0;exitDy=0;strokeColor=#CCCCCC;" edge="1" parent="1" source="P4-kjMKep5JRL_cxLgxr-43" target="P4-kjMKep5JRL_cxLgxr-47">
          <mxGeometry width="50" height="50" relative="1" as="geometry">
            <mxPoint x="385" y="800" as="sourcePoint" />
            <mxPoint x="415" y="792" as="targetPoint" />
          </mxGeometry>
        </mxCell>
        <mxCell id="P4-kjMKep5JRL_cxLgxr-56" value="" style="endArrow=none;html=1;rounded=0;entryX=0.01;entryY=0.661;entryDx=0;entryDy=0;exitX=0.985;exitY=0.26;exitDx=0;exitDy=0;entryPerimeter=0;exitPerimeter=0;" edge="1" parent="1" source="P4-kjMKep5JRL_cxLgxr-47" target="P4-kjMKep5JRL_cxLgxr-46">
          <mxGeometry width="50" height="50" relative="1" as="geometry">
            <mxPoint x="395" y="805" as="sourcePoint" />
            <mxPoint x="415" y="805" as="targetPoint" />
          </mxGeometry>
        </mxCell>
        <mxCell id="P4-kjMKep5JRL_cxLgxr-57" value="" style="endArrow=none;html=1;rounded=0;entryX=-0.039;entryY=0.622;entryDx=0;entryDy=0;exitX=1.005;exitY=0.357;exitDx=0;exitDy=0;exitPerimeter=0;entryPerimeter=0;" edge="1" parent="1" source="P4-kjMKep5JRL_cxLgxr-46" target="P4-kjMKep5JRL_cxLgxr-48">
          <mxGeometry width="50" height="50" relative="1" as="geometry">
            <mxPoint x="422" y="779" as="sourcePoint" />
            <mxPoint x="436" y="793" as="targetPoint" />
          </mxGeometry>
        </mxCell>
        <mxCell id="P4-kjMKep5JRL_cxLgxr-58" value="" style="endArrow=none;html=1;rounded=0;entryX=-0.027;entryY=0.325;entryDx=0;entryDy=0;exitX=0.913;exitY=0.776;exitDx=0;exitDy=0;exitPerimeter=0;entryPerimeter=0;" edge="1" parent="1" source="P4-kjMKep5JRL_cxLgxr-46" target="P4-kjMKep5JRL_cxLgxr-49">
          <mxGeometry width="50" height="50" relative="1" as="geometry">
            <mxPoint x="445" y="794" as="sourcePoint" />
            <mxPoint x="465" y="786" as="targetPoint" />
          </mxGeometry>
        </mxCell>
      </root>
    </mxGraphModel>
  </diagram>
</mxfile>
